<svg width="15" height="15" viewBox="0 0 15 15" fill="none" xmlns="http://www.w3.org/2000/svg">
<path d="M7.23302 14.4268C5.81542 14.4268 4.39782 14.4508 2.98021 14.4268C1.39686 14.3919 0.312938 13.3211 0.295491 11.7421C0.266412 8.9418 0.266412 6.14294 0.295491 3.34553C0.310757 1.70983 1.41213 0.64554 3.06309 0.632454C5.8256 0.612099 8.58811 0.612099 11.3506 0.632454C13.0103 0.643359 14.1248 1.65749 14.1597 3.31936C14.2164 6.11677 14.2164 8.91563 14.1597 11.7159C14.1291 13.38 13.0299 14.4007 11.3768 14.4312C9.99626 14.4465 8.61355 14.4268 7.23302 14.4268ZM10.9057 6.1393C11.1129 9.30601 9.89158 11.234 7.50782 11.2514C6.50937 11.2162 5.54353 10.8869 4.73149 10.3049C3.35315 9.32128 3.279 7.74883 3.56907 6.16111H1.67166C1.67166 8.10432 1.63021 9.98428 1.69346 11.8599C1.71745 12.584 2.22997 13.0572 3.00202 13.0594C5.83722 13.0747 8.67243 13.1074 11.4924 13.018C11.9111 13.0049 12.6395 12.3877 12.6635 12.0169C12.7813 10.0781 12.7181 8.12831 12.7181 6.14149L10.9057 6.1393ZM4.81655 7.52855C4.82395 8.16712 5.08135 8.77735 5.53353 9.2283C5.9857 9.67925 6.59662 9.935 7.23521 9.94066C7.87313 9.92211 8.47912 9.65748 8.92631 9.20216C9.37349 8.74685 9.62718 8.13617 9.63423 7.49802C9.61845 6.86109 9.35617 6.25511 8.90261 5.80765C8.44905 5.36019 7.83958 5.10615 7.20249 5.099C6.56403 5.1099 5.95557 5.37193 5.50897 5.82833C5.06237 6.28473 4.81359 6.89873 4.81655 7.53728V7.52855ZM12.4498 2.24852H10.2863V4.42945H12.4498V2.24852Z" fill="black"/>
</svg>
