<svg width="15" height="14" viewBox="0 0 15 14" fill="none" xmlns="http://www.w3.org/2000/svg">
<path d="M5.79663 4.42725C6.76714 4.97684 8.10406 3.77297 8.45083 5.39558C9.07021 5.14913 9.67869 4.80019 10.3308 4.66715C12.612 4.20043 14.2565 5.26691 14.4266 7.51763C14.588 9.5677 14.4593 11.6418 14.4593 13.7791H11.6786C11.6786 12.0583 11.7179 10.3659 11.6655 8.67788C11.6263 7.32134 10.7801 6.6627 9.60672 6.98984C8.65365 7.25591 8.477 8.06286 8.44646 8.88071C8.39848 10.078 8.42901 11.2797 8.42901 12.4749C8.42901 12.8718 8.42901 13.2687 8.42901 13.7573H5.79663V4.42725Z" fill="black"/>
<path d="M0.747803 4.64307H3.80111V13.803H0.747803V4.64307Z" fill="black"/>
<path d="M3.8665 1.60541C3.87785 2.0252 3.72446 2.43276 3.43915 2.7409C3.15384 3.04903 2.75927 3.23327 2.33985 3.2542C2.12288 3.25941 1.90702 3.22167 1.70469 3.14317C1.50235 3.06466 1.31752 2.94693 1.16085 2.79674C1.00418 2.64655 0.878741 2.46688 0.791754 2.26804C0.704766 2.0692 0.657956 1.85513 0.653994 1.63813C0.650699 1.42113 0.691254 1.20569 0.773251 1.00474C0.855248 0.803793 0.97699 0.621476 1.13117 0.468725C1.28534 0.315975 1.46878 0.195942 1.67048 0.115815C1.87217 0.0356888 2.08798 -0.00287547 2.30495 0.00243586C2.5132 0.0035476 2.71916 0.0460749 2.91083 0.127542C3.10249 0.20901 3.27603 0.327787 3.42136 0.476965C3.56668 0.626143 3.68087 0.802741 3.75729 0.996474C3.83372 1.19021 3.87084 1.3972 3.8665 1.60541Z" fill="black"/>
</svg>
