<svg width="14" height="13" viewBox="0 0 14 13" fill="none" xmlns="http://www.w3.org/2000/svg">
<path d="M1.33963 1.6312C4.10723 3.84048 4.81385 4.18071 7.05366 4.37917C7.08856 4.0673 7.11255 3.75325 7.16271 3.44138C7.4615 1.59849 9.34364 0.425144 10.9837 1.23427C11.9346 1.70099 12.7393 1.90381 13.7622 1.50034L13.0469 2.60172L13.9999 2.50794C13.941 2.65842 13.9345 2.77183 13.8734 2.81763C13.0709 3.43047 12.8506 4.23741 12.735 5.23846C12.0938 10.7322 5.68404 13.8815 0.881635 11.1161C0.835835 11.0899 0.829294 10.9939 0.84238 11.0288L4.36021 10.03L1.71039 7.95808L2.80085 7.66365C1.82379 7.04427 1.02121 6.3551 1.01467 5.07053H1.88922C1.02776 4.0215 0.683172 2.94848 1.33963 1.6312Z" fill="black"/>
</svg>
